<svg xmlns="http://www.w3.org/2000/svg" width="375" viewBox="0 0 375 375" height="375" version="1.0"><defs><clipPath id="a"><path d="M 4.464844 5.730469 L 370.054688 5.730469 L 370.054688 369.015625 L 4.464844 369.015625 Z M 4.464844 5.730469"/></clipPath><clipPath id="b"><path d="M 4.464844 150 L 370.054688 150 L 370.054688 369.015625 L 4.464844 369.015625 Z M 4.464844 150"/></clipPath><clipPath id="c"><path d="M 4.464844 179 L 370.054688 179 L 370.054688 266 L 4.464844 266 Z M 4.464844 179"/></clipPath><clipPath id="d"><path d="M 152 308.433594 L 216 308.433594 L 216 375 L 152 375 Z M 152 308.433594"/></clipPath><clipPath id="e"><path d="M 122.109375 153.675781 L 252.609375 153.675781 L 252.609375 375 L 122.109375 375 Z M 122.109375 153.675781"/></clipPath><clipPath id="f"><path d="M 96.316406 4.894531 L 290.566406 4.894531 L 290.566406 151.894531 L 96.316406 151.894531 Z M 96.316406 4.894531"/></clipPath></defs><path fill="#EE262C" d="M 362.941406 186.84375 C 362.941406 284.550781 283.746094 363.742188 186.042969 363.742188 C 88.335938 363.742188 9.140625 284.550781 9.140625 186.84375 C 9.140625 89.140625 88.335938 9.945312 186.042969 9.945312 C 283.746094 9.945312 362.941406 89.140625 362.941406 186.84375"/><g clip-path="url(#a)"><path transform="matrix(.84332 0 0 -.84332 4.464 369.03)" fill="none" d="M 425.079448 216.035846 C 425.079448 100.175588 331.170247 6.271019 215.314621 6.271019 C 99.454364 6.271019 5.545163 100.175588 5.545163 216.035846 C 5.545163 331.891471 99.454364 425.800672 215.314621 425.800672 C 331.170247 425.800672 425.079448 331.891471 425.079448 216.035846 Z M 425.079448 216.035846" stroke="#040606" stroke-width="10"/></g><path fill="#FFF" d="M 360.042969 198.40625 C 343.4375 210.429688 327.921875 218.601562 306.871094 226.835938 C 230.183594 256.617188 135.835938 256.253906 59.609375 225.882812 C 41.328125 218.503906 25.285156 209.839844 10.359375 199.5625 C 16.621094 292.6875 93.242188 364.796875 186.601562 364.796875 C 291.71875 360.679688 353.714844 277.996094 360.042969 198.375 L 360.042969 198.40625"/><g clip-path="url(#b)"><path transform="matrix(.84332 0 0 -.84332 4.464 369.03)" fill="none" d="M 421.642503 202.325121 C 401.951864 188.06782 383.553553 178.377672 358.591696 168.613413 C 267.65624 133.299032 155.779504 133.729808 65.390624 169.743621 C 43.712856 178.493472 24.689225 188.767252 6.990347 200.954048 C 14.415446 90.527129 105.272158 5.020379 215.976998 5.020379 C 340.624162 9.902508 414.13866 107.948087 421.642503 202.362177 Z M 421.642503 202.325121" stroke="#040606" stroke-width="10"/></g><g clip-path="url(#c)"><path fill="#040606" d="M 359.25 179.105469 L 351.015625 185.691406 C 335.796875 196.726562 321.367188 203.746094 301.007812 211.75 C 228.535156 239.882812 137.617188 239.519531 65.671875 210.859375 L 65.605469 210.859375 C 50.484375 204.765625 36.515625 197.585938 24 189.480469 C 23.703125 189.25 21.332031 187.339844 18.300781 185.230469 L 4.660156 208.390625 C 5.289062 208.851562 2.949219 214.417969 6.441406 216.65625 C 20.835938 225.980469 36.648438 234.117188 53.582031 240.9375 L 53.613281 240.9375 C 134.058594 272.988281 231.796875 273.351562 312.738281 241.925781 L 312.800781 241.925781 C 334.445312 233.425781 352.167969 224.894531 370.089844 211.882812 L 369.460938 208.980469 L 367.386719 195.210938 L 359.25 179.105469"/></g><path fill="#FFF" d="M 226.132812 239.222656 C 226.132812 260.699219 208.738281 278.09375 187.261719 278.09375 C 165.816406 278.09375 148.421875 260.699219 148.421875 239.222656 C 148.421875 217.777344 165.816406 200.382812 187.261719 200.382812 C 208.738281 200.382812 226.132812 217.777344 226.132812 239.222656"/><path transform="matrix(.84332 0 0 -.84332 4.464 369.03)" fill="none" d="M 262.852854 153.925336 C 262.852854 128.453958 242.226551 107.832287 216.759806 107.832287 C 191.330117 107.832287 170.703813 128.453958 170.703813 153.925336 C 170.703813 179.355025 191.330117 199.981328 216.759806 199.981328 C 242.226551 199.981328 262.852854 179.355025 262.852854 153.925336 Z M 262.852854 153.925336" stroke="#040606" stroke-width="10"/><path fill="#F4E927" d="M 236.339844 180.136719 C 236.339844 180.136719 236.535156 179.261719 236.691406 178.363281 C 236.847656 177.464844 237.195312 171.890625 237.214844 170.582031 C 237.234375 168.4375 237.121094 166.761719 236.964844 165.765625 C 236.808594 164.769531 236.476562 161.457031 235.796875 161.671875 C 234.980469 162.351562 228.851562 167.753906 227.992188 168.691406 C 227.117188 169.628906 222.664062 174.152344 221.882812 174.988281 C 222.953125 173.820312 216.671875 180.507812 215.425781 183.179688 C 215.210938 183.628906 215.269531 183.414062 215.269531 183.414062 C 215.269531 183.414062 214.492188 183.179688 214.277344 183.101562 C 214.0625 183.042969 209.140625 181.972656 208.03125 181.835938 C 206.921875 181.71875 200.441406 181.484375 196.28125 181.738281 C 192.464844 181.992188 186.316406 183.316406 182.894531 184.507812 C 180.226562 185.441406 173.242188 188.132812 171.824219 189.867188 C 169.625 189.34375 161.722656 187.878906 160.460938 187.761719 C 159.195312 187.644531 148.941406 186.867188 147.773438 186.867188 C 146.605469 186.867188 139.601562 186.886719 138.804688 186.925781 C 138.921875 188.601562 139.71875 191.019531 140.691406 192.441406 C 141.644531 193.867188 143.882812 197.164062 145.730469 198.546875 C 147.578125 199.949219 150.285156 202.40625 152.695312 203.246094 C 155.109375 204.085938 161.277344 206.523438 162.871094 206.835938 C 162.699219 208.023438 162.074219 211.242188 161.976562 212.488281 C 161.878906 213.71875 161.492188 217.792969 161.511719 219.375 C 161.550781 220.953125 161.453125 225.613281 161.667969 227.214844 C 161.878906 228.832031 161.800781 230.722656 162.171875 231.660156 C 161.277344 230.996094 158.535156 229.203125 158.535156 229.203125 L 156.199219 227.679688 L 154.175781 226.589844 L 153.785156 225.320312 C 153.785156 225.320312 153.242188 224.210938 153.164062 224.113281 C 153.066406 224.015625 152.558594 223.585938 152.558594 223.585938 L 151.976562 224.269531 L 151.859375 225.261719 L 151.820312 226.0625 L 151.527344 226.0625 L 150.324219 225.847656 C 150.324219 225.847656 149.464844 225.90625 149.390625 225.945312 C 149.292969 225.984375 148.667969 226.042969 148.667969 226.140625 C 148.667969 226.21875 148.609375 226.746094 148.609375 226.746094 L 149.195312 228.304688 L 149.601562 228.714844 L 148.628906 228.578125 L 147.09375 228.265625 L 146.605469 228.421875 L 146.625 229.300781 L 147.132812 230.3125 L 148.027344 231.25 L 147.308594 231.386719 L 145.945312 231.5625 L 145.246094 231.875 L 145.148438 232.402344 L 145.984375 233.042969 L 146.898438 233.570312 L 147.421875 233.824219 L 146.160156 233.882812 L 145.457031 234.019531 L 144.992188 234.351562 L 145.515625 234.820312 L 146.199219 235.226562 L 146.839844 235.558594 L 147.460938 236.4375 L 149.3125 240.179688 L 153.457031 247.84375 L 156.355469 253.265625 L 159.449219 258.082031 L 162.015625 262.023438 C 162.015625 262.023438 163.824219 264.34375 163.863281 264.480469 C 163.902344 264.597656 165.5 266.429688 165.5 266.429688 L 165.324219 267.210938 C 165.324219 267.210938 164.972656 268.632812 164.875 269.257812 C 164.796875 269.863281 164.019531 276.414062 164.019531 277.097656 C 164.019531 277.777344 163.765625 283.550781 163.804688 284.117188 C 163.824219 284.664062 164.195312 290.433594 164.234375 290.707031 C 164.390625 292.152344 165.070312 295.835938 165.695312 297.300781 C 166.0625 298.15625 168.359375 302.933594 169.3125 304.046875 C 170.265625 305.160156 172.210938 308.023438 173.417969 308.804688 C 174.644531 309.566406 176.980469 311.125 179.683594 311.925781 C 182.894531 312.898438 185.910156 313.25 190.675781 312.804688 C 195.597656 312.335938 197.445312 311.867188 201.339844 311.867188 C 205.25 311.867188 210.074219 312.898438 211.125 313.425781 C 211.242188 314.070312 212.078125 316.390625 212.078125 316.390625 L 213.382812 320.058594 L 214.589844 323.585938 L 215.792969 326.765625 L 217.253906 330.722656 L 218.402344 333.707031 L 219.101562 334.449219 L 219.765625 334.546875 L 220.152344 333.921875 L 220.09375 330.996094 L 219.765625 328.246094 L 219.414062 326.316406 L 220.289062 329.4375 L 221.144531 331.914062 C 221.183594 331.992188 221.921875 333.667969 221.921875 333.667969 L 222.875 334.390625 L 223.441406 334.292969 L 223.871094 333.609375 L 223.382812 326.609375 L 224.023438 330.023438 L 224.84375 331.835938 L 225.523438 332.1875 L 225.894531 331.933594 L 226.105469 330.996094 L 226.105469 329.027344 L 225.640625 324.367188 L 224.957031 319.804688 L 224.335938 317.445312 L 223.65625 315.628906 L 225.269531 315.007812 L 228.226562 313.210938 L 230.425781 310.96875 L 232.097656 308.511719 L 233.015625 306.601562 L 234.027344 304.457031 L 235.269531 301.472656 L 236.070312 298.820312 L 236.925781 295 L 237.429688 291.527344 L 237.761719 288.582031 L 237.625 281.25 L 237.15625 274.640625 L 236.554688 268.417969 L 235.816406 262.742188 L 235.230469 259.625 L 234.960938 258.492188 L 235.816406 257.460938 L 237.234375 255.078125 L 238.578125 252.796875 L 240.097656 249.523438 L 241.457031 246.578125 L 243.191406 242.289062 L 244.980469 237.199219 L 246.089844 234.234375 L 247.179688 230.527344 L 248.636719 225.476562 L 249.53125 222.125 L 250.058594 219.53125 L 250.175781 218.046875 L 250.175781 217.054688 L 249.902344 216.488281 L 250.292969 215.960938 L 250.699219 215.160156 L 250.855469 214.382812 L 250.542969 213.953125 L 249.746094 213.972656 L 249.28125 214.285156 L 248.910156 214.480469 L 249.28125 213.503906 L 249.261719 212.664062 L 248.714844 212.238281 L 247.957031 212.390625 L 247.429688 212.976562 L 246.984375 213.386719 L 247.121094 212.335938 L 246.925781 211.496094 L 246.4375 211.066406 L 245.542969 211.203125 C 245.542969 211.203125 245.078125 211.613281 245.019531 211.710938 C 244.941406 211.808594 244.453125 212.0625 244.453125 212.0625 L 244.296875 211.085938 C 244.296875 211.085938 243.832031 210.402344 243.734375 210.441406 C 243.65625 210.460938 243.25 210.441406 243.152344 210.5 C 243.054688 210.558594 242.410156 211.398438 242.410156 211.398438 L 241.945312 212.0625 L 241.886719 212.277344 L 241.320312 211.496094 L 240.777344 211.085938 L 240.308594 210.988281 L 240.097656 211.28125 L 239.960938 212.199219 L 239.84375 212.957031 C 239.84375 212.957031 239.960938 213.484375 239.902344 213.699219 C 239.84375 213.914062 239.375 214.167969 239.375 214.167969 C 239.375 214.167969 238.910156 214.792969 238.753906 214.90625 C 238.597656 215.023438 238.054688 215.863281 237.996094 215.960938 C 237.917969 216.058594 237.585938 216.605469 237.488281 216.683594 C 237.390625 216.742188 237.101562 217.015625 237.101562 217.015625 L 236.808594 217.5 L 236.652344 217.578125 L 236.339844 216.15625 L 235.796875 214.5 L 234.707031 212.335938 L 233.285156 210.617188 L 232.917969 210.285156 L 232.097656 206.601562 L 231.085938 203.675781 L 229.726562 200.515625 L 228.753906 198.039062 L 227.800781 196.207031 L 226.90625 194.746094 L 227.3125 194.023438 L 229.628906 191.078125 L 230.953125 188.972656 L 232.761719 186.144531 L 234.550781 183.140625 L 235.699219 181.308594 L 236.339844 180.136719"/><path fill="#040606" d="M 182.019531 200.339844 C 178.398438 200.339844 175.5 204.164062 175.597656 206.777344 C 175.753906 210.753906 178.476562 213.210938 182.019531 213.210938 C 185.558594 213.210938 188.4375 210.324219 188.4375 206.777344 C 188.4375 203.226562 185.558594 200.339844 182.019531 200.339844"/><path fill="#040606" d="M 181.746094 210.929688 C 184.605469 210.929688 186.921875 208.667969 186.921875 205.839844 C 186.921875 203.03125 184.605469 200.75 181.746094 200.75 C 178.90625 200.75 176.589844 203.03125 176.589844 205.839844 C 176.589844 208.648438 178.90625 210.929688 181.746094 210.929688"/><path fill="#FFF" d="M 181.511719 205.566406 C 182.71875 205.566406 183.691406 204.476562 183.691406 203.109375 C 183.691406 201.765625 182.71875 200.652344 181.511719 200.652344 C 180.304688 200.652344 179.3125 201.765625 179.3125 203.109375 C 179.3125 204.476562 180.304688 205.566406 181.511719 205.566406"/><path fill="#040606" d="M 218.65625 196.714844 C 219.726562 196.65625 224.375 198.351562 224.375 202.796875 C 224.375 206.171875 221.882812 208.570312 218.734375 208.570312 C 215.5625 208.570312 212.933594 206.171875 212.933594 202.796875 C 212.933594 199.445312 215.832031 196.910156 218.65625 196.714844"/><path fill="#040606" d="M 218.597656 196.910156 C 215.8125 196.910156 213.558594 199.074219 213.558594 201.726562 C 213.558594 204.398438 215.8125 206.542969 218.597656 206.542969 C 221.398438 206.542969 223.65625 204.398438 223.65625 201.726562 C 223.65625 199.074219 221.398438 196.910156 218.597656 196.910156"/><path fill="#FFF" d="M 217.371094 202.253906 C 218.421875 202.253906 219.296875 201.140625 219.296875 199.792969 C 219.296875 198.429688 218.421875 197.335938 217.371094 197.335938 C 216.300781 197.335938 215.445312 198.429688 215.445312 199.792969 C 215.445312 201.140625 216.300781 202.253906 217.371094 202.253906"/><path fill="#040606" d="M 208.671875 210.617188 C 208.59375 209.992188 201.222656 210.304688 201.492188 211.613281 C 201.648438 212.449219 204.878906 213.425781 205.617188 213.347656 C 206.4375 213.269531 208.75 211.457031 208.671875 210.617188"/><path fill="#D03458" d="M 233.519531 210.929688 C 233.128906 210.714844 232.761719 210.558594 232.410156 210.832031 C 232.078125 211.125 231.222656 211.808594 230.582031 213.171875 C 230.09375 214.226562 229.804688 215.21875 229.609375 216.703125 C 229.375 218.28125 229.511719 220.171875 229.785156 221.226562 C 230.054688 222.28125 230.464844 223.800781 232.195312 225.300781 C 233.054688 226.023438 233.949219 226.160156 234.433594 225.984375 C 235.230469 225.671875 235.347656 225.144531 235.484375 224.777344 C 235.601562 224.386719 236.710938 221.148438 236.652344 219.277344 C 236.59375 217.421875 236.554688 216.644531 236.164062 215.53125 C 235.757812 214.402344 235.171875 213.132812 234.609375 212.429688 C 234.046875 211.710938 233.519531 210.929688 233.519531 210.929688 Z M 177.386719 218.476562 C 172.738281 218.476562 169.371094 222.242188 169.371094 226.511719 C 169.371094 230.761719 172.816406 233.648438 177.464844 233.648438 C 182.09375 233.648438 185.382812 230.273438 185.382812 226.003906 C 185.382812 221.753906 182.019531 218.476562 177.386719 218.476562"/><path fill="#6A2831" d="M 212.605469 220.953125 C 211.339844 221.167969 209.859375 221.148438 208.945312 220.582031 C 208.050781 220.015625 207 218.964844 206.609375 218.535156 C 205.40625 219.6875 204.683594 220.367188 204.0625 220.835938 C 205.425781 221.011719 205.714844 221.207031 207.078125 221.636719 C 208.828125 222.804688 210.695312 224.171875 210.65625 227.523438 C 211.457031 225.828125 212.058594 224.386719 212.214844 223.46875 C 212.351562 222.53125 212.605469 220.953125 212.605469 220.953125"/><path fill="#D03458" d="M 204.003906 220.894531 C 202.601562 221.910156 199.859375 223.78125 197 223.351562 C 198.128906 227.875 201.378906 233.609375 204.898438 233.355469 C 208.226562 233.121094 210.464844 227.835938 210.773438 227.15625 C 210.386719 225.261719 209.78125 223.351562 208.207031 222.359375 C 206.628906 221.363281 205.113281 220.914062 204.003906 220.894531"/><path fill="#B09E59" d="M 168.261719 203.792969 C 166.707031 202.796875 151.859375 200.457031 146.957031 200.632812 C 148.882812 201.570312 150.382812 202.195312 151.179688 202.621094 C 151.976562 203.050781 162.25 206.660156 162.988281 206.972656 C 162.132812 208.960938 161.648438 214.597656 161.570312 215.960938 C 162.871094 214.714844 168.941406 205.78125 168.261719 203.792969"/><path fill="#040606" d="M 138.804688 186.925781 C 136.449219 186.730469 124.132812 187.664062 123.941406 189.539062 C 123.785156 191.136719 134.15625 196.363281 151.917969 202.875 C 147.035156 200.75 138.667969 192.695312 138.804688 186.925781"/><path fill="#B09E59" d="M 225.074219 191.820312 C 225.074219 191.820312 225.835938 192.636719 225.894531 192.871094 C 225.949219 193.125 226.808594 194.316406 226.808594 194.316406 L 227.429688 194.0625 L 230.09375 190.335938 L 233.988281 184.078125 L 235.914062 180.917969 L 236.339844 179.980469 L 236.476562 179.164062 C 234.046875 182.398438 228.539062 189.460938 225.074219 191.820312"/><path fill="#040606" d="M 236.339844 179.980469 C 238.8125 175.515625 248.8125 157.769531 246.070312 155.664062 C 244.453125 154.417969 237.023438 160.675781 235.796875 161.671875 C 237.332031 161.808594 237.898438 174.210938 236.339844 179.980469"/><path fill="#B09E59" d="M 166.839844 299.582031 C 167.152344 297.671875 169.117188 293.75 169.800781 293.378906 C 170.480469 293.007812 172.835938 293.066406 173.59375 293.261719 C 173.515625 292.328125 173.515625 290.105469 175.5 289.792969 C 177.484375 289.480469 180.636719 294.316406 181.257812 296.050781 C 181.882812 297.785156 183.671875 303.304688 186.824219 304.476562 C 189.996094 305.664062 195.421875 304.671875 196.550781 304.125 C 197.660156 303.558594 205.152344 302.058594 206.515625 302.058594 C 207.875 302.058594 212.390625 301.941406 213.5 302.625 C 214.628906 303.304688 218.65625 308.335938 219.628906 310.324219 C 220.621094 312.296875 225.210938 314.285156 227.9375 313.484375 C 227.117188 314.03125 226.867188 314.285156 226.867188 314.285156 L 225.855469 314.8125 C 225.855469 314.8125 225.132812 315.242188 224.550781 315.433594 C 223.460938 315.804688 221.457031 315.960938 221.457031 315.960938 L 222.039062 316.019531 C 222.039062 316.019531 220.308594 317.445312 219.765625 318.007812 C 219.199219 318.574219 215.230469 323.527344 215.054688 324.210938 C 214.859375 324.894531 214.742188 323.839844 214.742188 323.839844 L 213.75 321.460938 L 212.078125 316.390625 L 211.28125 314.167969 L 211.164062 313.425781 L 209.550781 312.898438 C 209.550781 312.898438 207.777344 312.335938 205.464844 312.082031 C 202.816406 311.808594 197.175781 311.925781 194.316406 312.355469 C 191.472656 312.804688 187.445312 313.035156 184.410156 312.859375 C 181.570312 312.6875 178.632812 311.710938 176.824219 311.007812 C 175.070312 310.304688 172.875 308.394531 171.570312 307.089844 C 170.265625 305.78125 167.949219 302.429688 166.839844 299.582031 Z M 166.53125 267.445312 C 167.777344 266.585938 169.933594 262.179688 169.253906 260.871094 C 168.574219 259.566406 156.742188 253.109375 155.578125 251.628906 C 154.390625 250.144531 158.359375 256.464844 158.785156 257.03125 C 159.214844 257.59375 162.929688 263.484375 163.496094 264.03125 C 164.058594 264.597656 166.53125 267.445312 166.53125 267.445312 Z M 211.707031 245.601562 C 211.84375 245.015625 207.371094 246.421875 205.035156 246.480469 C 202.679688 246.539062 197.972656 245.855469 197.855469 246.539062 C 197.71875 247.222656 204.414062 251.140625 205.890625 250.886719 C 207.371094 250.632812 211.535156 246.421875 211.707031 245.601562"/><g clip-path="url(#d)"><path fill="#F4E927" d="M 173.144531 308.980469 L 161.878906 315.550781 L 173.28125 317.289062 L 159.527344 324.367188 L 175.617188 328.578125 L 152.96875 346.460938 L 183.300781 345.953125 L 157.054688 374.738281 C 161.511719 373.371094 189.003906 369.785156 195.558594 370.390625 L 215.367188 329.828125 C 215.367188 329.828125 181.433594 332.558594 182.058594 332.441406 C 182.679688 332.304688 194.449219 323.507812 194.449219 323.507812 L 176.492188 321.011719 L 187.269531 315.550781 L 174.761719 314.324219 L 178.4375 311.925781 L 173.144531 308.980469"/></g><path fill="#85414A" d="M 173.457031 308.882812 C 172.210938 309.722656 162.5625 315.414062 162.5625 315.414062 L 173.28125 317.289062 L 159.835938 324.269531 L 170.984375 327.175781 C 170.984375 327.175781 177.015625 327.097656 176.6875 327.175781 C 176.355469 327.253906 172.640625 324.699219 172.640625 324.699219 L 178.90625 325.265625 L 175.1875 322.613281 L 183.535156 324.933594 L 179.3125 322.457031 L 185.597656 322.203125 L 176.84375 320.972656 L 187.078125 315.414062 L 175.265625 314.265625 L 178.90625 311.867188 L 177.425781 311.28125 L 175.597656 310.210938 L 174.703125 309.722656 L 173.457031 308.882812"/><g clip-path="url(#e)"><path stroke-linecap="round" transform="matrix(.4981 0 0 -.49922 122.11 376.479)" fill="none" stroke-linejoin="round" d="M 145.858847 106.30217 L 109.807182 111.262998 L 131.444455 122.20186 L 106.325142 124.697923 L 113.712714 129.463135 M 187.855076 93.641886 C 187.855076 93.641886 119.72786 88.172455 120.974807 88.407195 C 122.229596 88.641934 145.858847 106.30217 145.858847 106.30217 M 148.086098 12.351593 L 187.855076 93.641886 M 70.783236 3.642757 C 79.723609 6.381385 134.879441 13.603537 148.086098 12.351593 M 103.086217 135.402045 L 80.46864 122.20186 L 103.360702 118.71989 L 75.739653 104.580747 L 108.050477 96.106651 L 62.580051 60.324524 L 123.476543 61.341729 L 70.783236 3.642757 M 122.151172 132.084393 C 128.283954 134.071854 124.456847 158.758626 123.476543 166.027726 C 122.30802 174.501823 117.34376 196.536038 115.038085 196.340422 C 112.693198 196.183929 113.046107 181.927416 113.046107 180.949335 C 112.191282 183.758384 108.395544 195.362341 106.913324 195.205848 C 105.391892 195.049355 106.560415 180.792842 107.070173 178.132461 C 105.901651 180.127746 101.603997 191.379594 99.612019 190.558005 C 97.620041 189.736417 102.929368 167.710026 104.058679 163.210852 C 105.235044 158.758626 113.869563 129.384889 122.151172 132.084393 M 119.884709 184.032247 C 124.880338 182.436018 129.570113 178.562816 133.083523 172.005759 M 93.824304 171.497157 C 95.549639 174.736562 97.816102 177.47519 100.349208 179.619144 M 223.083285 332.278073 C 221.169731 332.825799 214.684039 327.082505 215.742767 313.991865 C 216.605435 303.718099 225.741869 298.021754 227.537787 303.639853 M 111.054129 316.495753 C 101.721634 316.495753 94.961457 308.95279 94.961457 300.400447 C 94.961457 291.887228 101.917695 286.104811 111.210978 286.104811 C 120.504261 286.104811 127.107589 292.865309 127.107589 301.417652 C 127.107589 309.930872 120.355255 316.495753 111.054129 316.495753 M 164.414043 311.691418 C 169.378303 311.534925 177.503064 307.865164 177.808919 298.913764 M 150.313349 306.73059 C 153.128782 297.121919 159.410571 286.143934 166.56287 286.80903 C 173.668114 287.474125 181.290959 303.530308 181.643869 311.456678 M 142.188588 311.182816 C 150.1565 302.552226 161.559398 307.552178 169.535152 316.495753 C 174.844479 309.18753 184.09855 309.696132 189.41572 316.808739 M 173.824963 332.23895 C 173.707326 333.490894 158.908655 332.864922 159.410571 330.243664 C 159.763481 328.569189 166.20996 326.613026 167.69218 326.769519 C 169.378303 326.926012 174.021024 330.55665 173.824963 332.23895 M 193.948646 360.126004 C 196.05826 360.243373 205.390756 356.847475 205.390756 347.943023 C 205.390756 341.182525 200.387284 336.37819 194.066282 336.37819 C 187.737439 336.37819 182.459482 341.182525 182.459482 347.943023 C 182.459482 354.656573 188.239355 359.734771 193.948646 360.126004 M 120.316042 352.903851 C 113.046107 352.903851 107.227022 345.243519 107.423083 340.008828 C 107.73678 332.082457 113.202956 327.121628 120.316042 327.121628 C 127.421287 327.121628 133.20116 332.904045 133.20116 340.008828 C 133.20116 347.121435 127.421287 352.903851 120.316042 352.903851 M 228.008333 430.164449 C 231.48253 431.49464 232.345198 401.49493 228.871 392.355739 M 60.666497 347.160558 C 48.753841 353.37333 34.339449 367.355981 33.515994 379.460715 M 210.43344 364.304367 C 224.83999 381.92548 254.923563 437.590042 248.986841 442.316131 C 243.010907 447.04222 194.332925 401.49493 187.149257 386.808061 M 202.496898 271.104956 C 211.209841 277.317729 230.588493 296.887179 229.843462 317.552081 C 229.608189 324.500371 224.612559 330.713143 222.659793 332.747552 C 220.667815 343.64729 209.962894 370.243277 200.269647 376.729912 M 226.604537 236.027049 C 242.775634 257.435292 256.954753 311.104569 257.190026 315.830658 C 257.425299 320.556747 257.190026 319.539542 256.17051 320.556747 C 257.691942 321.026226 258.907519 324.030892 258.436973 325.008973 C 257.927214 326.026177 255.433321 325.008973 254.68829 324.265631 C 254.962775 325.752315 256.17051 327.98234 254.68829 328.764805 C 253.20607 329.500322 251.716008 327.7476 250.704334 326.495656 C 250.978819 328.256203 251.214092 330.713143 249.959303 331.221745 C 248.712356 331.730347 246.249832 329.969801 245.740074 328.99172 C 245.504801 330.243664 245.238158 332.23895 244.022581 332.473689 C 242.775634 332.708429 240.783656 330.243664 240.548383 328.764805 C 240.038625 329.969801 238.046647 331.730347 237.301616 331.495608 C 236.564427 331.221745 236.054669 327.512861 236.289942 325.517575 C 234.807722 324.774233 231.560955 320.556747 229.843462 317.552081 M 199.0227 121.223778 C 210.198167 121.223778 217.421048 130.675956 220.158057 135.128182 C 222.887224 139.619531 233.31766 158.250024 232.070713 185.362437 C 230.823766 212.435728 228.086757 233.327544 225.114475 240.753138 M 178.632374 126.184607 C 179.879321 121.223778 192.57622 86.693596 193.556524 85.167789 C 194.568198 83.681106 196.520964 83.446366 196.795449 85.441652 C 197.030722 87.429113 196.285691 97.624633 195.313229 100.598 C 197.265995 93.368023 199.532458 86.419733 201.014678 84.93305 C 202.496898 83.446366 204.261445 84.69831 204.261445 86.693596 C 204.261445 88.641934 203.751687 97.123855 203.241929 100.089398 C 204.488876 92.624681 205.743665 87.898592 207.970916 88.915797 C 210.198167 89.893878 206.990612 116.497689 203.98696 121.458518 M 87.111181 220.283852 C 84.138899 209.110251 80.978399 174.384453 87.691521 158.250024 C 94.373274 142.123419 104.568437 128.445931 125.703794 127.436551 C 146.839151 126.458469 151.05838 131.654037 172.695653 127.937328 C 180.977262 126.497593 186.365013 123.21124 188.082506 121.96712 M 109.571909 262.63086 C 100.858966 274.070499 74.92404 295.948221 64.297543 300.165708 C 64.062271 302.669596 62.580051 306.37848 61.089988 306.143741 C 59.607769 305.869878 59.607769 302.160994 59.607769 300.90905 C 57.851064 301.417652 54.141593 302.160994 53.396562 301.143789 C 52.620161 300.165708 54.141593 296.926303 55.114054 295.948221 C 53.122076 295.948221 49.647879 297.669644 49.13812 296.182961 C 48.675417 294.696277 50.667395 291.456872 52.149615 290.71353 C 49.883152 290.478791 46.173681 290.478791 46.173681 289.226847 C 46.173681 287.982727 49.13812 286.261304 50.894825 285.752702 C 49.412606 285.2441 45.663923 285.987441 46.173681 284.500758 C 46.683439 283.021899 48.400932 283.522676 49.647879 282.278557 C 50.894825 281.026613 73.512402 232.826767 89.691342 217.905158 M 81.715587 339.539349 C 78.751148 328.87435 78.084541 299.930968 80.351004 290.244051 M 104.842922 372.238562 C 72.265455 382.942684 4.68721 381.182138 3.675536 374.734626 C 2.695232 368.255815 72.775214 341.691127 84.962354 338.9525 M 188.082506 386.416829 C 151.019168 397.707799 112.771622 384.14768 99.847292 373.686123" stroke="#040606" stroke-width="7.33" stroke-miterlimit="2.613"/></g><path fill="#FFF80D" d="M 282.714844 61.472656 L 288.09375 37.640625 L 258.46875 51.546875 L 270.253906 66.953125 L 229.582031 84.851562 L 205.589844 65.980469 L 216.800781 46.882812 L 193.457031 7.097656 L 170.101562 46.882812 L 181.316406 65.980469 L 157.328125 84.84375 L 116.65625 66.953125 L 128.441406 51.546875 L 98.808594 37.640625 L 104.191406 61.472656 L 104.167969 61.457031 L 109.480469 84.976562 L 121.875 149.601562 L 265.03125 149.601562 L 277.414062 85.03125 L 282.734375 61.457031 Z M 282.714844 61.472656"/><path fill="#FFD00B" d="M 285.335938 49.847656 L 264.605469 59.582031 L 270.253906 66.953125 L 270.253906 77.875 L 229.582031 95.761719 L 205.589844 76.898438 L 205.589844 65.980469 L 213.597656 52.34375 L 193.457031 18.015625 L 173.304688 52.34375 L 181.316406 65.980469 L 181.316406 76.898438 L 157.328125 95.761719 L 116.65625 77.875 L 116.65625 66.953125 L 122.296875 59.582031 L 101.566406 49.847656 L 104.191406 61.472656 L 104.167969 61.457031 L 109.480469 84.976562 L 121.875 149.601562 L 265.03125 149.601562 L 277.414062 85.03125 L 282.734375 61.457031 L 282.714844 61.472656 Z M 285.335938 49.847656"/><path fill="#FFAF10" d="M 217.394531 113.273438 C 217.394531 126.523438 206.671875 137.269531 193.457031 137.269531 C 180.230469 137.269531 169.507812 126.523438 169.507812 113.273438 C 169.507812 100.015625 180.230469 89.269531 193.457031 89.269531 C 206.671875 89.269531 217.394531 100.015625 217.394531 113.273438 Z M 217.394531 113.273438"/><path fill="#FF860D" d="M 217.394531 113.273438 C 217.394531 123.421875 206.671875 131.652344 193.457031 131.652344 C 180.230469 131.652344 169.507812 123.421875 169.507812 113.273438 C 169.507812 103.121094 180.230469 94.882812 193.457031 94.882812 C 206.671875 94.882812 217.394531 103.121094 217.394531 113.273438 Z M 217.394531 113.273438"/><path fill="#FFF9DE" d="M 169.507812 113.273438 C 169.507812 126.523438 180.230469 137.269531 193.449219 137.269531 C 206.671875 137.269531 217.394531 126.523438 217.394531 113.273438 Z M 169.507812 113.273438"/><path fill="#FFF3C2" d="M 193.449219 131.652344 C 206.671875 131.652344 217.394531 123.421875 217.394531 113.273438 L 169.507812 113.273438 C 169.507812 123.421875 180.230469 131.652344 193.449219 131.652344 Z M 193.449219 131.652344"/><g clip-path="url(#f)"><path fill="#33363A" d="M 289.527344 35.851562 C 288.851562 35.308594 287.914062 35.199219 287.128906 35.5625 L 257.503906 49.476562 C 256.871094 49.765625 256.410156 50.332031 256.246094 51 C 256.089844 51.679688 256.234375 52.386719 256.65625 52.9375 L 266.671875 66.03125 L 229.90625 82.207031 L 208.566406 65.414062 L 218.769531 48.039062 C 219.191406 47.324219 219.191406 46.4375 218.769531 45.722656 L 195.425781 5.9375 C 195.007812 5.242188 194.265625 4.8125 193.457031 4.8125 C 192.644531 4.8125 191.894531 5.242188 191.488281 5.9375 L 168.132812 45.722656 C 167.71875 46.4375 167.71875 47.324219 168.132812 48.039062 L 178.335938 65.414062 L 156.996094 82.199219 L 120.238281 66.03125 L 130.246094 52.9375 C 130.671875 52.386719 130.820312 51.679688 130.65625 51 C 130.492188 50.332031 130.03125 49.765625 129.40625 49.476562 L 99.785156 35.5625 C 98.988281 35.191406 98.058594 35.308594 97.382812 35.851562 C 96.699219 36.40625 96.394531 37.289062 96.589844 38.140625 L 101.894531 61.667969 C 101.902344 61.765625 101.917969 61.867188 101.9375 61.964844 L 107.234375 85.417969 L 119.628906 150.042969 C 119.835938 151.113281 120.78125 151.894531 121.875 151.894531 L 265.039062 151.894531 C 266.128906 151.894531 267.066406 151.113281 267.273438 150.042969 L 279.644531 85.535156 L 284.964844 61.964844 C 284.988281 61.867188 285.003906 61.765625 285.015625 61.667969 L 290.320312 38.140625 C 290.515625 37.289062 290.203125 36.40625 289.527344 35.851562 Z M 214.996094 115.558594 C 213.851562 126.460938 204.621094 134.980469 193.449219 134.980469 C 182.28125 134.980469 173.058594 126.460938 171.914062 115.558594 Z M 171.914062 110.976562 C 173.058594 100.082031 182.28125 91.554688 193.457031 91.554688 C 204.621094 91.554688 213.851562 100.082031 214.996094 110.976562 Z M 280.492188 60.96875 C 280.46875 61.070312 280.453125 61.167969 280.441406 61.265625 L 275.179688 84.597656 L 263.148438 147.316406 L 195.738281 147.316406 L 195.738281 139.445312 C 209.125 138.28125 219.675781 126.992188 219.675781 113.273438 C 219.675781 98.769531 207.914062 86.980469 193.449219 86.980469 C 178.988281 86.980469 167.226562 98.769531 167.226562 113.273438 C 167.226562 127 177.777344 138.28125 191.167969 139.445312 L 191.167969 147.316406 L 123.761719 147.316406 L 111.703125 84.480469 L 106.464844 61.273438 C 106.457031 61.167969 106.441406 61.070312 106.417969 60.96875 L 102.066406 41.691406 L 124.898438 52.410156 L 114.84375 65.5625 C 114.421875 66.121094 114.273438 66.84375 114.441406 67.519531 C 114.621094 68.207031 115.097656 68.765625 115.742188 69.046875 L 156.417969 86.945312 C 157.179688 87.28125 158.082031 87.167969 158.742188 86.648438 L 182.726562 67.78125 C 183.625 67.074219 183.863281 65.808594 183.285156 64.816406 L 172.753906 46.882812 L 193.457031 11.609375 L 214.15625 46.882812 L 203.628906 64.816406 C 203.046875 65.808594 203.285156 67.074219 204.183594 67.78125 L 228.167969 86.652344 C 228.832031 87.175781 229.722656 87.28125 230.496094 86.945312 L 271.167969 69.046875 C 271.804688 68.765625 272.28125 68.207031 272.460938 67.527344 C 272.636719 66.84375 272.488281 66.121094 272.058594 65.5625 L 262.003906 52.410156 L 284.839844 41.691406 Z M 280.492188 60.96875"/></g><path fill="#33363A" d="M 163.117188 139.5625 L 159.535156 139.5625 C 158.273438 139.5625 157.253906 138.535156 157.253906 137.269531 C 157.253906 136.011719 158.273438 134.980469 159.535156 134.980469 L 163.117188 134.980469 C 164.382812 134.980469 165.40625 136.011719 165.40625 137.269531 C 165.40625 138.535156 164.382812 139.5625 163.117188 139.5625 Z M 163.117188 139.5625"/><path fill="#33363A" d="M 152.054688 139.5625 L 148.464844 139.5625 C 147.203125 139.5625 146.183594 138.535156 146.183594 137.269531 C 146.183594 136.011719 147.203125 134.980469 148.464844 134.980469 L 152.054688 134.980469 C 153.308594 134.980469 154.335938 136.011719 154.335938 137.269531 C 154.335938 138.535156 153.308594 139.5625 152.054688 139.5625 Z M 152.054688 139.5625"/><path fill="#33363A" d="M 140.984375 139.5625 L 120.46875 139.5625 C 119.207031 139.5625 118.179688 138.535156 118.179688 137.269531 C 118.179688 136.011719 119.207031 134.980469 120.46875 134.980469 L 140.984375 134.980469 C 142.238281 134.980469 143.265625 136.011719 143.265625 137.269531 C 143.265625 138.535156 142.238281 139.5625 140.984375 139.5625 Z M 140.984375 139.5625"/><path fill="#33363A" d="M 169.804688 139.5625 C 169.210938 139.5625 168.617188 139.316406 168.191406 138.890625 C 167.769531 138.46875 167.523438 137.871094 167.523438 137.277344 C 167.523438 136.664062 167.769531 136.085938 168.191406 135.652344 C 169.046875 134.804688 170.5625 134.804688 171.417969 135.652344 C 171.839844 136.085938 172.085938 136.679688 172.085938 137.277344 C 172.085938 137.871094 171.839844 138.460938 171.417969 138.890625 C 170.992188 139.316406 170.414062 139.5625 169.804688 139.5625 Z M 169.804688 139.5625"/><path fill="#33363A" d="M 227.375 139.5625 L 223.785156 139.5625 C 222.53125 139.5625 221.503906 138.535156 221.503906 137.269531 C 221.503906 136.011719 222.53125 134.980469 223.785156 134.980469 L 227.375 134.980469 C 228.628906 134.980469 229.65625 136.011719 229.65625 137.269531 C 229.65625 138.535156 228.636719 139.5625 227.375 139.5625 Z M 227.375 139.5625"/><path fill="#33363A" d="M 238.445312 139.5625 L 234.855469 139.5625 C 233.59375 139.5625 232.574219 138.535156 232.574219 137.269531 C 232.574219 136.011719 233.59375 134.980469 234.855469 134.980469 L 238.445312 134.980469 C 239.699219 134.980469 240.726562 136.011719 240.726562 137.269531 C 240.726562 138.535156 239.699219 139.5625 238.445312 139.5625 Z M 238.445312 139.5625"/><path fill="#33363A" d="M 266.441406 139.5625 L 245.925781 139.5625 C 244.664062 139.5625 243.636719 138.535156 243.636719 137.269531 C 243.636719 136.011719 244.664062 134.980469 245.925781 134.980469 L 266.441406 134.980469 C 267.695312 134.980469 268.722656 136.011719 268.722656 137.269531 C 268.722656 138.535156 267.695312 139.5625 266.441406 139.5625 Z M 266.441406 139.5625"/><path fill="#33363A" d="M 217.097656 139.5625 C 216.503906 139.5625 215.917969 139.316406 215.484375 138.890625 C 215.0625 138.46875 214.816406 137.871094 214.816406 137.277344 C 214.816406 136.664062 215.0625 136.085938 215.484375 135.652344 C 216.339844 134.804688 217.863281 134.804688 218.710938 135.652344 C 219.140625 136.085938 219.378906 136.679688 219.378906 137.277344 C 219.378906 137.871094 219.140625 138.460938 218.710938 138.890625 C 218.285156 139.316406 217.691406 139.5625 217.097656 139.5625 Z M 217.097656 139.5625"/><path fill="#A7BBC1" d="M 201.367188 116.019531 C 201.367188 120.398438 197.824219 123.953125 193.457031 123.953125 C 189.078125 123.953125 185.535156 120.398438 185.535156 116.019531 C 185.535156 111.640625 189.078125 108.089844 193.457031 108.089844 C 197.824219 108.089844 201.367188 111.640625 201.367188 116.019531 Z M 201.367188 116.019531"/><path fill="#FFF" d="M 201.367188 113.316406 C 201.367188 117.703125 197.824219 121.257812 193.457031 121.257812 C 189.078125 121.257812 185.535156 117.703125 185.535156 113.316406 C 185.535156 108.9375 189.078125 105.386719 193.457031 105.386719 C 197.824219 105.386719 201.367188 108.9375 201.367188 113.316406 Z M 201.367188 113.316406"/><path fill="#D8E5EA" d="M 187.851562 118.933594 C 184.761719 115.835938 184.761719 110.808594 187.851562 107.707031 C 190.945312 104.609375 195.960938 104.609375 199.050781 107.707031"/><path fill="#33363A" d="M 193.457031 123.542969 C 190.726562 123.542969 188.164062 122.476562 186.242188 120.546875 C 184.316406 118.621094 183.253906 116.050781 183.253906 113.316406 C 183.253906 110.589844 184.316406 108.023438 186.242188 106.09375 C 190.214844 102.109375 196.6875 102.109375 200.664062 106.09375 C 202.59375 108.023438 203.648438 110.589844 203.648438 113.324219 C 203.648438 116.050781 202.585938 118.621094 200.664062 120.546875 C 198.738281 122.476562 196.175781 123.542969 193.457031 123.542969 Z M 193.457031 107.679688 C 192.007812 107.679688 190.566406 108.222656 189.464844 109.324219 C 188.402344 110.390625 187.816406 111.8125 187.816406 113.316406 C 187.816406 114.828125 188.402344 116.242188 189.464844 117.308594 C 191.597656 119.445312 195.3125 119.445312 197.4375 117.308594 C 198.5 116.242188 199.085938 114.828125 199.085938 113.316406 C 199.085938 111.8125 198.5 110.390625 197.4375 109.332031 L 197.4375 109.324219 C 196.339844 108.222656 194.898438 107.679688 193.457031 107.679688 Z M 193.457031 107.679688"/></svg>